<svg width="329" height="227" viewBox="0 0 329 227" fill="none" xmlns="http://www.w3.org/2000/svg">
<path d="M0.787109 92.8359C0.787109 93.8027 1.1167 94.5938 1.77588 95.209C2.39111 95.7363 3.16016 96 4.08301 96C4.96191 96 5.70898 95.7363 6.32422 95.209C6.9834 94.6377 7.31299 93.8467 7.31299 92.8359V40.6289H26.2974C27.3081 40.6289 28.0991 40.2993 28.6704 39.6401C29.1978 39.0249 29.4614 38.2778 29.4614 37.3989C29.5054 36.52 29.2637 35.7729 28.7363 35.1577C28.1211 34.4546 27.3301 34.103 26.3633 34.103H7.31299V7.93359H26.2974C27.3081 7.93359 28.0991 7.58203 28.6704 6.87891C29.1978 6.26367 29.4614 5.5166 29.4614 4.6377C29.5054 3.75879 29.2637 3.01172 28.7363 2.39648C28.1211 1.7373 27.3301 1.40771 26.3633 1.40771H3.95117C2.80859 1.40771 1.92969 1.8252 1.31445 2.66016C0.787109 3.40723 0.611328 4.28613 0.787109 5.29688V92.8359ZM46.4023 4.43994C46.4023 3.4292 46.0728 2.63818 45.4136 2.06689C44.7983 1.53955 44.0513 1.27588 43.1724 1.27588C42.2935 1.27588 41.5464 1.51758 40.9312 2.00098C40.228 2.61621 39.8765 3.40723 39.8765 4.37402V92.8359C39.8765 93.8027 40.228 94.5938 40.9312 95.209C41.5464 95.7363 42.2935 96 43.1724 96C44.0513 96 44.7983 95.7363 45.4136 95.209C46.0728 94.6377 46.4023 93.8467 46.4023 92.8359V4.43994ZM57.0151 92.77C57.0151 93.7368 57.3667 94.5278 58.0698 95.1431C58.6851 95.6704 59.4321 95.9341 60.311 95.9341C61.1899 95.9341 61.937 95.6704 62.5522 95.1431C63.2554 94.5718 63.6069 93.7808 63.6069 92.77V28.6978L66.5073 40.0356L69.3418 51.3076L72.0444 61.8545C73.0552 65.9414 73.978 69.479 74.813 72.4673C77.0103 80.3774 79.2954 87.2769 81.6685 93.1655C81.8442 94.9233 82.833 95.8682 84.6348 96C86.4365 96.1318 87.5571 95.4067 87.9966 93.8247C88.2603 93.2974 88.3262 92.7261 88.1943 92.1108V4.76953C88.1943 3.75879 87.8428 2.96777 87.1396 2.39648C86.5244 1.86914 85.7773 1.60547 84.8984 1.60547C84.0195 1.56152 83.2725 1.80322 82.6572 2.33057C81.9541 2.9458 81.6025 3.73682 81.6025 4.70361V72.4014C80.6797 69.1934 79.6689 65.3921 78.5703 60.9976L75.6699 49.5938L72.7695 38.124L69.8032 26.6543C67.562 18.041 65.4746 10.4165 63.541 3.78076L63.4751 3.71484V3.64893C62.9917 2.41846 62.0908 1.67139 60.7725 1.40771C59.4102 1.14404 58.3335 1.56152 57.5425 2.66016C57.103 3.27539 56.9272 3.97852 57.0151 4.76953V92.77ZM105.333 8.06543C112.804 10.2627 118.385 15.6899 122.076 24.3472C124.977 31.1587 126.493 39.2666 126.625 48.6709C126.8 59.1299 125.042 67.7212 121.351 74.4448C119.901 77.1694 117.572 79.5425 114.364 81.564C113.221 82.311 111.749 83.124 109.947 84.0029L107.64 85.1895L105.333 86.3101V8.06543ZM98.8071 91.188C98.2798 92.6382 98.5654 93.9346 99.6641 95.0771C100.763 96.2197 101.971 96.2856 103.29 95.2749C104.959 94.0005 107.157 92.6821 109.881 91.3198L113.375 89.606C114.781 88.9028 115.924 88.3096 116.803 87.8262C120.89 85.585 124.295 82.2231 127.02 77.7407C131.327 70.6655 133.392 60.5581 133.216 47.4185C133.041 36.0366 130.58 25.8853 125.833 16.9644C123.417 12.3501 120.033 8.63672 115.682 5.82422C111.507 3.05566 106.761 1.31982 101.444 0.616699C100.082 0.440918 99.1367 0.946289 98.6094 2.13281C98.126 3.1875 98.1919 4.28613 98.8071 5.42871V91.188ZM181.666 52.7578C181.71 53.0215 181.776 53.2632 181.864 53.4829V92.8359C181.864 93.8027 182.215 94.5938 182.918 95.209C183.534 95.7363 184.281 96 185.16 96C186.039 96 186.786 95.7363 187.401 95.209C188.104 94.6377 188.456 93.8467 188.456 92.8359V53.4829C188.543 53.2632 188.609 53.0435 188.653 52.8237C192.301 36.3882 197.025 20.6338 202.826 5.56055C203.177 4.6377 203.133 3.82471 202.694 3.12158C202.298 2.4624 201.661 2.02295 200.782 1.80322C199.947 1.53955 199.134 1.5835 198.343 1.93506C197.464 2.28662 196.849 2.92383 196.498 3.84668C192.103 15.2725 188.324 27.0938 185.16 39.3105C181.996 27.0938 178.216 15.2725 173.822 3.84668C173.031 1.91309 171.581 1.23193 169.471 1.80322C168.636 2.02295 168.021 2.44043 167.625 3.05566C167.142 3.80273 167.098 4.6377 167.494 5.56055C173.294 20.6338 178.019 36.3662 181.666 52.7578ZM216.339 22.5015C217.481 16.9644 219.349 12.7896 221.942 9.97705C223.348 8.39502 224.732 7.95557 226.095 8.65869C227.062 9.14209 228.182 10.3506 229.457 12.2842C233.28 17.8213 235.96 25.8413 237.499 36.3442C238.641 45.2651 238.553 54.186 237.235 63.1069C235.741 72.8188 233.016 80.1577 229.061 85.1235C228.402 85.9585 227.809 86.6396 227.281 87.167C226.534 87.9141 225.831 88.4634 225.172 88.8149C223.458 89.6938 221.986 89.3203 220.755 87.6943C219.305 85.7607 218.141 83.2119 217.262 80.0479C216.91 78.8174 216.559 77.4111 216.207 75.8291L215.812 73.7856L215.482 71.7422C212.582 55.5703 212.867 39.1567 216.339 22.5015ZM224.183 95.9341C227.215 95.5386 230.094 93.8687 232.818 90.9243C234.796 88.7271 236.642 85.8926 238.355 82.4209C241.915 75.082 244.024 65.5239 244.684 53.7466C244.991 47.9458 244.706 41.5737 243.827 34.6304C242.113 22.9409 238.839 13.8442 234.005 7.34033C231.456 3.95654 228.819 2.04492 226.095 1.60547C224.161 1.29785 222.228 1.7373 220.294 2.92383C218.712 3.89063 217.196 5.29688 215.746 7.14258C212.757 10.8779 210.626 15.9976 209.352 22.5015C208.868 24.9624 208.473 27.7969 208.165 31.0049C208.077 32.2354 207.967 33.6416 207.835 35.2236L207.704 37.2671L207.572 39.2446C206.913 47.814 207.066 56.625 208.033 65.6777L208.165 66.4688L208.231 67.3916C208.319 68.0947 208.407 68.7539 208.495 69.3691C208.67 71.0391 208.89 72.5991 209.154 74.0493C209.769 78.0923 210.582 81.564 211.593 84.4644C214.449 92.814 218.646 96.6372 224.183 95.9341ZM278.434 94.0225C282.257 91.3857 285.025 86.7056 286.739 79.9819C287.354 77.4771 287.86 74.5547 288.255 71.2148C288.387 70.0283 288.519 68.644 288.651 67.062L288.849 65.0845L289.046 63.2388C289.75 55.3726 289.991 45.6167 289.771 33.9712L289.64 26.6543L289.442 19.2715C289.266 13.3389 289.178 8.46094 289.178 4.6377C289.178 3.62695 288.827 2.83594 288.124 2.26465C287.508 1.7373 286.761 1.45166 285.882 1.40771C285.003 1.40771 284.256 1.67139 283.641 2.19873C282.938 2.81396 282.586 3.60498 282.586 4.57178C282.586 7.29639 282.63 10.3945 282.718 13.8662L282.982 23.0947C283.246 31.1807 283.355 37.355 283.312 41.6177V46.6934L283.246 51.835C283.158 55.7021 283.004 59.1519 282.784 62.1841C282.169 69.9624 280.851 76.6641 278.829 82.2891C278.17 84.1787 277.379 85.6948 276.456 86.8374C275.27 88.4194 273.951 89.2324 272.501 89.2764C271.007 89.3203 269.667 88.5293 268.48 86.9033C267.997 86.2441 267.535 85.4751 267.096 84.5962C266.788 83.937 266.48 83.1899 266.173 82.355C264.063 76.8618 262.701 70.1821 262.086 62.3159C261.866 59.3276 261.734 55.8779 261.69 51.9668L261.625 46.8252L261.559 41.8154C261.559 37.4209 261.668 31.2246 261.888 23.2266L262.152 13.9321C262.24 10.4604 262.284 7.3623 262.284 4.6377C262.284 3.62695 261.954 2.83594 261.295 2.26465C260.68 1.7373 259.933 1.45166 259.054 1.40771C258.131 1.40771 257.362 1.67139 256.747 2.19873C256.087 2.81396 255.758 3.60498 255.758 4.57178C255.758 7.29639 255.714 10.3945 255.626 13.8662L255.362 23.1606C255.143 31.2466 255.033 37.4429 255.033 41.7495C255.033 46.188 255.077 49.6377 255.165 52.0986C255.252 55.9219 255.428 59.3936 255.692 62.5137C256.307 70.292 257.538 77.0815 259.383 82.8823C260.921 87.5845 263.294 91.188 266.502 93.6929C270.37 96.6812 274.347 96.791 278.434 94.0225ZM306.778 7.80176C310.646 7.97754 313.963 10.6802 316.732 15.9097C318.885 19.9966 320.226 24.3472 320.753 28.9614C321.412 34.6743 320.511 39.7939 318.05 44.3203C315.545 48.8906 311.788 52.1865 306.778 54.208V7.80176ZM306.778 62.3818C309.898 66.4248 312.799 71.4565 315.479 77.4771C316.534 79.8501 317.633 82.5527 318.775 85.585L320.292 89.6719L321.808 93.7588C322.115 94.6816 322.708 95.3188 323.587 95.6704C324.334 96.022 325.147 96.0879 326.026 95.8682C326.861 95.6484 327.499 95.209 327.938 94.5498C328.377 93.8027 328.443 92.9678 328.136 92.0449C325.411 84.5303 323.17 78.7954 321.412 74.8403C318.6 68.6001 315.567 63.2827 312.315 58.8882C317.809 55.8999 321.874 51.5713 324.51 45.9023C327.147 40.2334 328.004 34.0811 327.081 27.4453C326.114 20.502 323.873 14.5693 320.357 9.64746C316.051 3.6709 310.799 0.924316 304.603 1.40771C303.548 1.1001 302.582 1.20996 301.703 1.7373C300.736 2.30859 300.252 3.1875 300.252 4.37402V92.6382C300.252 93.6489 300.604 94.4399 301.307 95.0112C301.922 95.5825 302.669 95.8682 303.548 95.8682C304.427 95.8682 305.174 95.6045 305.79 95.0771C306.449 94.5059 306.778 93.7148 306.778 92.7041V62.3818ZM76.1973 139.186C80.3281 140.944 83.6899 143.449 86.2827 146.701C89.0073 150.084 90.6113 153.974 91.0947 158.368C91.71 164.257 90.6992 169.552 88.0625 174.254C85.3818 179.088 81.4268 182.538 76.1973 184.604V139.186ZM69.6714 222.836C69.6714 223.803 70.001 224.594 70.6602 225.209C71.2754 225.736 72.0444 226 72.9673 226C73.8462 226 74.5933 225.736 75.2085 225.209C75.8677 224.638 76.1973 223.847 76.1973 222.836V191.525C83.1846 189.416 88.6118 185.395 92.479 179.462C96.1704 173.793 97.9062 167.179 97.6865 159.621C97.5107 152.721 95.0498 146.613 90.3037 141.295C85.7334 136.242 80.0205 132.902 73.165 131.276C71.583 130.924 70.3965 131.452 69.6055 132.858C68.8145 134.22 68.8364 135.451 69.6714 136.549V222.836ZM108.167 222.704C108.167 223.539 108.431 224.264 108.958 224.879C109.574 225.626 110.409 226 111.463 226H130.448C131.458 226 132.25 225.648 132.821 224.945C133.348 224.33 133.634 223.583 133.678 222.704C133.678 221.825 133.414 221.078 132.887 220.463C132.315 219.804 131.524 219.474 130.514 219.474H114.759V170.629H130.448C131.458 170.629 132.25 170.277 132.821 169.574C133.348 168.959 133.634 168.212 133.678 167.333C133.678 166.454 133.414 165.707 132.887 165.092C132.315 164.433 131.524 164.103 130.514 164.103H114.759V137.868H130.448C131.458 137.868 132.25 137.538 132.821 136.879C133.348 136.264 133.634 135.517 133.678 134.638C133.678 133.759 133.414 133.012 132.887 132.396C132.315 131.693 131.524 131.342 130.514 131.342H111.332C110.277 131.342 109.442 131.737 108.827 132.528C108.299 133.231 108.08 134.066 108.167 135.033V222.704ZM158.199 172.87C158.551 170.409 158.968 167.003 159.452 162.653L159.979 157.511L160.638 152.37C162.704 163.751 164.901 177.924 167.23 194.887H155.035C156.002 188.91 157.057 181.571 158.199 172.87ZM149.432 223.429C151.014 216.881 152.508 209.564 153.915 201.479H168.153L169.669 212.553L171.119 223.627C171.251 224.594 171.69 225.275 172.438 225.67C173.097 226.022 173.866 226.088 174.745 225.868C175.58 225.648 176.261 225.187 176.788 224.484C177.359 223.737 177.579 222.88 177.447 221.913L175.997 210.839L174.481 199.765C173.294 190.976 172.262 183.593 171.383 177.616C168.878 160.785 166.263 146.107 163.539 133.583C163.143 131.825 162.066 131.034 160.309 131.21C158.639 131.166 157.606 131.957 157.21 133.583C156.068 138.329 155.079 144.262 154.244 151.381L153.189 160.346C152.794 164.125 152.442 167.113 152.135 169.311C149.234 191.591 146.224 209.059 143.104 221.715C142.84 222.682 142.972 223.539 143.5 224.286C143.983 224.989 144.642 225.451 145.477 225.67C146.356 225.89 147.147 225.824 147.85 225.473C148.641 225.077 149.168 224.396 149.432 223.429ZM207.506 225.802C213.307 224.572 217.921 221.583 221.349 216.837C221.92 216.046 222.074 215.233 221.81 214.398C221.59 213.651 221.085 213.058 220.294 212.619C218.404 211.564 216.866 211.872 215.68 213.542C214.493 215.167 212.889 216.552 210.868 217.694C208.758 218.837 206.737 219.43 204.803 219.474C203.133 219.474 201.507 218.419 199.925 216.31C199.354 215.563 198.761 214.662 198.146 213.607C197.926 213.168 197.706 212.707 197.486 212.223C197.311 211.916 197.113 211.52 196.893 211.037C194.959 206.862 193.663 201.742 193.004 195.678C192.74 193.261 192.564 190.558 192.477 187.57L192.411 183.549L192.345 179.66C192.301 167.443 193.685 157.204 196.498 148.942C197.376 146.437 198.343 144.394 199.398 142.812C200.848 140.658 202.54 139.274 204.474 138.659C206.451 137.956 208.517 138.219 210.67 139.45C212.472 140.548 213.988 142.064 215.218 143.998C215.746 144.833 216.449 145.338 217.328 145.514C218.163 145.646 218.954 145.492 219.701 145.053C220.448 144.613 220.953 143.998 221.217 143.207C221.524 142.372 221.415 141.537 220.887 140.702C217.503 135.209 212.999 132.353 207.374 132.133C201.705 131.869 197.113 134.44 193.597 139.845C190.389 144.811 188.192 151.227 187.005 159.093C186.214 164.323 185.819 171.178 185.819 179.66C185.819 188.317 186.214 195.216 187.005 200.358C188.28 208.224 190.697 214.618 194.256 219.54C195.882 221.781 197.794 223.473 199.991 224.616C202.496 225.89 205.001 226.286 207.506 225.802ZM232.752 222.704C232.752 223.539 233.016 224.264 233.543 224.879C234.159 225.626 234.994 226 236.048 226H255.033C256.043 226 256.834 225.648 257.406 224.945C257.933 224.33 258.219 223.583 258.263 222.704C258.263 221.825 257.999 221.078 257.472 220.463C256.9 219.804 256.109 219.474 255.099 219.474H239.344V170.629H255.033C256.043 170.629 256.834 170.277 257.406 169.574C257.933 168.959 258.219 168.212 258.263 167.333C258.263 166.454 257.999 165.707 257.472 165.092C256.9 164.433 256.109 164.103 255.099 164.103H239.344V137.868H255.033C256.043 137.868 256.834 137.538 257.406 136.879C257.933 136.264 258.219 135.517 258.263 134.638C258.263 133.759 257.999 133.012 257.472 132.396C256.9 131.693 256.109 131.342 255.099 131.342H235.917C234.862 131.342 234.027 131.737 233.412 132.528C232.884 133.231 232.665 134.066 232.752 135.033V222.704Z" fill="#FF9F00"/>
</svg>
